/* XPM */
static char *frame_6[] = {
/* width height num_colors chars_per_pixel */
"39 168 16 1",
/* colors */
"  c None",
"a c #EBCA51",
"b c #572C1C",
"c c #B86245",
"d c #EFD8A3",
"e c #D15C38",
"f c #E39A34",
"g c #2A1B1C",
"h c #76412A",
"i c #C17F59",
"j c #8F573A",
"k c #412116",
"l c #DB7636",
"m c #240803",
"n c #EEDCC2",
"o c #DD9C66",
/* pixels */
"                                       ",
"                                       ",
"                                       ",
"                                       ",
"                                       ",
"                                       ",
"                                       ",
"                                       ",
"                                       ",
"                                       ",
"                                       ",
"                                       ",
"                                       ",
"                                       ",
"                                       ",
"                                       ",
"                                       ",
"                                       ",
"                                       ",
"                                       ",
"                                       ",
"                                       ",
"                                       ",
"                   f                   ",
"                                       ",
"                                       ",
"                                       ",
"                                       ",
"                                       ",
"                                       ",
"                   i                   ",
"                                       ",
"                                       ",
"                                       ",
"                                       ",
"                                       ",
"               mc mi                   ",
"                                       ",
"                                       ",
"                                       ",
"                                       ",
"                  ib                   ",
"                                       ",
"                                       ",
"                                       ",
"                o    fo                ",
"                    i  o               ",
"                      o                ",
"               o  o                    ",
"               o    ll                 ",
"                       o               ",
"                  o  o   f             ",
"                i       i              ",
"                 l                     ",
"                o o  f    o            ",
"           o      o   o  ll            ",
"                                       ",
"         c    l     ec                 ",
"                    ee  al             ",
"             o o    ee                 ",
"       ec       le  eel                ",
"          ec     o e f      l          ",
"                   e  o  o   o         ",
"          i  i     e     o   e         ",
"              o l  l   f               ",
"               ll  ee  f               ",
"             l    e e   c              ",
"          i c  c  e ee  e e            ",
"   o       i   c    ee  e l            ",
"               e   eee         l       ",
"               e  eeee c      i o      ",
"           lc  ec eeee c i c           ",
"           i   eeceffeec  le           ",
"               eeeeefeeee le           ",
"        ec oec  efeefeec   l  o        ",
"        ff   ee  eeefeeeee   o         ",
"             ee leeffleeee             ",
"    i      i eellflfflleee c           ",
"    b      j eeffelffleeeeheee         ",
"              eelllffflleeeel          ",
"         i  ceeeelffffllleee  llb      ",
"         c  eeeelfffafllleec  lm       ",
"          c eeflfffaafllllleee         ",
"          eceellfffaafffffeeee   e     ",
"          eeelfffffaafffffllee   e     ",
"       e  eeelffffaaaaffffleee   e     ",
"       e  eeelffaaaaaaaaffleeecj e     ",
"       emmeeflffaaaadaaaafleeeee em    ",
"       ebheeelffaaaddaaaafffeeee em    ",
"       eeeeefffaaaadddaaaaffleeeee     ",
"       eeeeeffaaaaadddaaaaffffleee     ",
"       eelllffaaaadddddaaaafffleae     ",
"       eellfffaaaddddddaaaaaffllee     ",
"       eellffaaaadddddddaaaaafllee     ",
"       eellfaaaaddddddddddaaafllee     ",
"       mellfaaaddddnnndddddaaflleb     ",
"        ellfaadddddnnndddddaaflle      ",
"        eelfaanddnnnnnnndddafleee      ",
"        eeefaadddnnnnnnnnddafleee      ",
"         ellfaadnnnddnnnnndaleee       ",
"         eeefaadnnnoonnnndaaleec       ",
"          eelfaddnoiionnnaaleec        ",
"           elffadnccccoddalleh         ",
"            elfadccccccddfeb           ",
"           kcccbkkbicbkbhjcjkg         ",
"           gcjhhkkbhhbkbhhjhkg         ",
"            kjjhkkbhbkgbkkbbk          ",
"            gjbbkkghbkgbkkbbg          ",
"              hgggggggggkbk            ",
"              bgggggggggkbk            ",
"           gjiobkkjjbbkbhcciig         ",
"           gjjobbkjjbbkbhjjjig         ",
"           gkkmgggggggggggggbg         ",
"             bggggggggggggkk           ",
"             hhbggkbbgggbbbb           ",
"             jihkkjjjbbbjjjj           ",
"             jihbbijjbbbhjjj           ",
"             bijbbjjjbbbbhhh           ",
"              jjbbhjhbbkkkg            ",
"              gbkkggggggggg            ",
"              gggkggggggggg            ",
"              gkkkkkkgggkkg            ",
"              gcckkhhbkkbbg            ",
"              gjjkjjhbkgbkg            ",
"              gjjgjjhbkgbkg            ",
"              gjjgjjhbkkbkg            ",
"                ggggggggg              ",
"                ggkkbkggm              ",
"                gkkkbkggm              ",
"                ggbhhkggm              ",
"                ggbhhbkgm              ",
"                ggbhhbkgm              ",
"                ggbhhbkg               ",
"                 gbhhbkg               ",
"                 gbhhbkg               ",
"                 gbhhbkg               ",
"                 gbhhbkg               ",
"                 gbhhbkg               ",
"                 gbhhbkg               ",
"                 gbhhbkg               ",
"                 gbhhbkg               ",
"                 gbhbbkg               ",
"                 gbhhbkg               ",
"                 gbhhbkg               ",
"                 gbhhbkg               ",
"                 gbhhbkg               ",
"                 gkhbbkg               ",
"                 gkhbbkg               ",
"                 gbbbbkg               ",
"                 gkkkkkg               ",
"                 gkbbkkg               ",
"                 gkkkkkg               ",
"                 gkbbkgg               ",
"                 gkhbkkg               ",
"                 gkbkkgg               ",
"                 gkbkkgg               ",
"                 gkkkgg                ",
"                 gggggg                ",
"                 ggggmg                ",
"                   gm                  ",
"                                       ",
"                                       ",
"                                       ",
"                                       ",
"                                       ",
"                                       ",
"                                       ",
"                                       "
};