/* XPM */
static char *frame_2[] = {
/* width height num_colors chars_per_pixel */
"39 168 16 1",
/* colors */
"  c None",
"a c #EBCA51",
"b c #572C1C",
"c c #B86245",
"d c #EFD8A3",
"e c #D15C38",
"f c #E39A34",
"g c #2A1B1C",
"h c #76412A",
"i c #C17F59",
"j c #8F573A",
"k c #412116",
"l c #DB7636",
"m c #240803",
"n c #EEDCC2",
"o c #DD9C66",
/* pixels */
"                                       ",
"                                       ",
"                                       ",
"                                       ",
"                                       ",
"                                       ",
"                                       ",
"                                       ",
"                                       ",
"                                       ",
"                                       ",
"                                       ",
"                                       ",
"                                       ",
"                                       ",
"                                       ",
"                                       ",
"                                       ",
"                   j                   ",
"                   h                   ",
"                                       ",
"                                       ",
"                                       ",
"                                       ",
"                                       ",
"                                       ",
"                   k                   ",
"                   i                   ",
"                                       ",
"                                       ",
"                                       ",
"                                       ",
"                                       ",
"               bj mo                   ",
"               kh  m                   ",
"                                       ",
"                                       ",
"                                       ",
"                  ki                   ",
"                  bj                   ",
"                                       ",
"                                       ",
"                                       ",
"                     ll                ",
"                    o  o               ",
"                      om               ",
"              mo  o                    ",
"              mo    ii                 ",
"                       o               ",
"                     o   o             ",
"                     m  om             ",
"                 l                     ",
"               bi o       i            ",
"                m f      il            ",
"                         gm            ",
"              om    cc                 ",
"            mi      ee  oc             ",
"         ii   mk    ee  kk             ",
"               hjc mll                 ",
"               mhl cmm      kb         ",
"                mi e        ji         ",
"                   e     o             ",
"         mj jj     o                   ",
"         mlmkg     lm                  ",
"         mic      bee      mmm         ",
"        ci        eee      koj   j     ",
"        ii    mkm eeee    ik     o     ",
"              clk elee                 ",
"              lk  eeee                 ",
"              em beeee                 ",
"              eemmeeee                 ",
"          me  beeeeffem                ",
"           e   celeefel i ie           ",
"           ee  elleefee i me  oh       ",
"           eem llleefee mi m om        ",
"           eem ilalffee  l   m         ",
"           feemieelffee el cm          ",
"           ceeeeeelffleeee ccc         ",
"         icmeeeeeelfffleee chdd        ",
"         cj mcelllfffflee  em          ",
"        iljbceelllffaflee be   mo      ",
"         chheeeellffaflee ee           ",
"         cjheeeellfaafleeeeeem         ",
"         ieeeeeefffaafflleeeebm        ",
"         ceeelllfffaaffllfeeeem        ",
"       im heelffffaaaafffleeeem        ",
"          jeelfffaaaaaafffeeek         ",
"         cefalffaaaadaaaffeeekbj       ",
"         ceeefffaaannaaaafeeemhc       ",
"         ceeefffaaadndaaafflebhcm      ",
"        ceeelfffaaadddaaafflleeec      ",
"        celffffaaaaddddaaaffleeec      ",
"        cllfffaaaadddddaaaaflllec      ",
"        clfffaaaaddnddddaaaffllec      ",
"        clfffaaadndddddddaaafllec      ",
"        cllfaaaddddnnndddaaafllcm      ",
"        celfaadnddnnnnndddaafllc       ",
"        celfaadddnnnnnnnndaaflec       ",
"        cclffaddnnnnnnnnndaafecj       ",
"         belfaddnnnoonnnndaflej        ",
"         bcefaannndoodnnndffecj        ",
"          meefaddnoiiidndaflek         ",
"          mieloaddccccidafeeck         ",
"            eelddccccccndlek           ",
"           ghjchgkbichkbhjjjkg         ",
"           ghhhbkkbhhbkbjjjhkm         ",
"            kjjhkkbhbkgbkkbbk          ",
"            gjbbkkghbkgbkkbbg          ",
"              hgggggggggkbk            ",
"              bgggggggggkbk            ",
"           gjiobkkjjbbkbhcciig         ",
"           gjjobbkjjbbkbhjjjig         ",
"           gkkmgggggggggggggbg         ",
"             bggggggggggggkk           ",
"             hhbggkbbgggbbbb           ",
"             jihkkjjjbbbjjjj           ",
"             jihbbijjbbbhjjj           ",
"             bijbbjjjbbbbhhh           ",
"              jjbbhjhbbkkkg            ",
"              gbkkggggggggg            ",
"              gggkggggggggg            ",
"              gkkkkkkgggkkg            ",
"              gcckkhhbkkbbg            ",
"              gjjkjjhbkgbkg            ",
"              gjjgjjhbkgbkg            ",
"              gjjgjjhbkkbkg            ",
"                ggggggggg              ",
"                ggkkbkggm              ",
"                gkkkbkggm              ",
"                ggbhhkggm              ",
"                ggbhhbkgm              ",
"                ggbhhbkgm              ",
"                ggbhhbkg               ",
"                 gbhhbkg               ",
"                 gbhhbkg               ",
"                 gbhhbkg               ",
"                 gbhhbkg               ",
"                 gbhhbkg               ",
"                 gbhhbkg               ",
"                 gbhhbkg               ",
"                 gbhhbkg               ",
"                 gbhbbkg               ",
"                 gbhhbkg               ",
"                 gbhhbkg               ",
"                 gbhhbkg               ",
"                 gbhhbkg               ",
"                 gkhbbkg               ",
"                 gkhbbkg               ",
"                 gbbbbkg               ",
"                 gkkkkkg               ",
"                 gkbbkkg               ",
"                 gkkkkkg               ",
"                 gkbbkgg               ",
"                 gkhbkkg               ",
"                 gkbkkgg               ",
"                 gkbkkgg               ",
"                 gkkkgg                ",
"                 gggggg                ",
"                 ggggmg                ",
"                   gm                  ",
"                                       ",
"                                       ",
"                                       ",
"                                       ",
"                                       ",
"                                       ",
"                                       ",
"                                       "
}