/* XPM */
static char *frame_5[] = {
/* width height num_colors chars_per_pixel */
"39 168 16 1",
/* colors */
"  c None",
"a c #EBCA51",
"b c #572C1C",
"c c #B86245",
"d c #EFD8A3",
"e c #D15C38",
"f c #E39A34",
"g c #2A1B1C",
"h c #76412A",
"i c #C17F59",
"j c #8F573A",
"k c #412116",
"l c #DB7636",
"m c #240803",
"n c #EEDCC2",
"o c #DD9C66",
/* pixels */
"                                       ",
"                                       ",
"                                       ",
"                                       ",
"                                       ",
"                                       ",
"                                       ",
"                                       ",
"                                       ",
"                                       ",
"                                       ",
"                                       ",
"                                       ",
"                                       ",
"                                       ",
"                                       ",
"                                       ",
"                                       ",
"                                       ",
"                                       ",
"                                       ",
"                                       ",
"                   j                   ",
"                   j                   ",
"                                       ",
"                                       ",
"                                       ",
"                                       ",
"                                       ",
"                                       ",
"                   i                   ",
"                                       ",
"                                       ",
"                                       ",
"                                       ",
"                   m                   ",
"               mo  i                   ",
"                                       ",
"                                       ",
"                                       ",
"                  jk                   ",
"                  ib                   ",
"                                       ",
"                                       ",
"                     kk                ",
"                o    ick               ",
"                    j ki               ",
"               m  m   i                ",
"               f  i kk                 ",
"               i    jj k               ",
"                       i kk            ",
"                k o  o   cj            ",
"                jm      i              ",
"                kjk  m                 ",
"          mh    i o  i    ih           ",
"          mi      i   i  iih           ",
"         m          mm                 ",
"        kj    c     ee                 ",
"                    ee  och            ",
"             o i    cem                ",
"      hcj       il mcci                ",
"         kci     o c i       i         ",
"                   c  o  oj   o        ",
"         mo  o     e     oj   i        ",
"              o l  e   i               ",
"               oi  ce  i               ",
"             i    c c   e              ",
"          i i  c  e ce  c cm           ",
"   i      gi   c    ce  i im           ",
"               e   eee         hb      ",
"               e  eeee c      imji     ",
"          hlc  ee eeee c ijmh          ",
"          ho   eeeeffeee  beh          ",
"               ceeeefee i blh          ",
"       mlcmoce  coeefee    bh jh       ",
"       mfi   ee  eeefee  ok  hh        ",
"             ee eeeffee  oh            ",
"   bi     kc eeeefeffle cebhk          ",
"          kc eeffeeffeeeeebheeh        ",
"              eeelefffleeebhlb         ",
"        hj ki  eelffffleeekhh  bi      ",
"        hj kc  eelffaflee  hb          ",
"         kbkeeeeelfaaflee  jb    m     ",
"         keeeeeelffaaffleeeeej c e     ",
"      ib keeeelllffaafflleeejmcmee     ",
"      ieh meeelfffaaaafflleeeec me     ",
"      ik  meeelffaaaaaafffleeec me     ",
"      cm  eeoelfaaaadaaaffleebmmme     ",
"      cec eeeelfaaaddaaaafleebmeee     ",
"      cecmeeefffaaadddaaafflebmeee     ",
"      ceeeellfffaaadddaaafffleeeee     ",
"      ceellffffaaaaddddaaafffeeeee     ",
"      ceelffffaaaaaddddaaaafflllee     ",
"      ceellffaaaadddddddaaafffllee     ",
"      ceellffaaadddddddddaaaafllee     ",
"      hcellfaaaddddnnndddaaaafllej     ",
"       celffaadddddnnnddddaaaflee      ",
"       cellfaadddnnnnnnnnddaafeee      ",
"       ieelfaadddnnnnnnnnddaallec      ",
"        meeffaddnnnoonnnnddaflee       ",
"         eeefaadnndoodnnndaaleec       ",
"          celfaddnoiiidndafllec        ",
"          ielloadnccccodafleeeb        ",
"            eeeadccccccndfec           ",
"           mhhjbkkhiihkbjjjjhg         ",
"           ghhhbkkbhjhkbjjjjhg         ",
"            kjjhkkbhbkgbkkbbk          ",
"            gjbbkkghbkgbkkbbg          ",
"              hgggggggggkbk            ",
"              bgggggggggkbk            ",
"           gjiobkkjjbbkbhcciig         ",
"           gjjobbkjjbbkbhjjjig         ",
"           gkkmgggggggggggggbg         ",
"             bggggggggggggkk           ",
"             hhbggkbbgggbbbb           ",
"             jihkkjjjbbbjjjj           ",
"             jihbbijjbbbhjjj           ",
"             bijbbjjjbbbbhhh           ",
"              jjbbhjhbbkkkg            ",
"              gbkkggggggggg            ",
"              gggkggggggggg            ",
"              gkkkkkkgggkkg            ",
"              gcckkhhbkkbbg            ",
"              gjjkjjhbkgbkg            ",
"              gjjgjjhbkgbkg            ",
"              gjjgjjhbkkbkg            ",
"                ggggggggg              ",
"                ggkkbkggm              ",
"                gkkkbkggm              ",
"                ggbhhkggm              ",
"                ggbhhbkgm              ",
"                ggbhhbkgm              ",
"                ggbhhbkg               ",
"                 gbhhbkg               ",
"                 gbhhbkg               ",
"                 gbhhbkg               ",
"                 gbhhbkg               ",
"                 gbhhbkg               ",
"                 gbhhbkg               ",
"                 gbhhbkg               ",
"                 gbhhbkg               ",
"                 gbhbbkg               ",
"                 gbhhbkg               ",
"                 gbhhbkg               ",
"                 gbhhbkg               ",
"                 gbhhbkg               ",
"                 gkhbbkg               ",
"                 gkhbbkg               ",
"                 gbbbbkg               ",
"                 gkkkkkg               ",
"                 gkbbkkg               ",
"                 gkkkkkg               ",
"                 gkbbkgg               ",
"                 gkhbkkg               ",
"                 gkbkkgg               ",
"                 gkbkkgg               ",
"                 gkkkgg                ",
"                 gggggg                ",
"                 ggggmg                ",
"                   gm                  ",
"                                       ",
"                                       ",
"                                       ",
"                                       ",
"                                       ",
"                                       ",
"                                       ",
"                                       "
};