/* XPM */
static char *frame_4[] = {
/* width height num_colors chars_per_pixel */
"39 168 16 1",
/* colors */
"  c None",
"a c #EBCA51",
"b c #572C1C",
"c c #B86245",
"d c #EFD8A3",
"e c #D15C38",
"f c #E39A34",
"g c #2A1B1C",
"h c #76412A",
"i c #C17F59",
"j c #8F573A",
"k c #412116",
"l c #DB7636",
"m c #240803",
"n c #EEDCC2",
"o c #DD9C66",
/* pixels */
"                                       ",
"                                       ",
"                                       ",
"                                       ",
"                                       ",
"                                       ",
"                                       ",
"                                       ",
"                                       ",
"                                       ",
"                                       ",
"                                       ",
"                                       ",
"                                       ",
"                                       ",
"                                       ",
"                                       ",
"                                       ",
"                   j                   ",
"                   b                   ",
"                                       ",
"                                       ",
"                                       ",
"                                       ",
"                                       ",
"                                       ",
"                   k                   ",
"                   c                   ",
"                                       ",
"                                       ",
"                                       ",
"                                       ",
"                                       ",
"               bj mo                   ",
"               kj  m                   ",
"                                       ",
"                                       ",
"                                       ",
"                  ki                   ",
"                  bj                   ",
"                                       ",
"                                       ",
"                                       ",
"                     ll                ",
"                    o  o               ",
"                      om               ",
"               o  o                    ",
"              mo    ii                 ",
"                       o               ",
"                     o   o             ",
"                        i              ",
"                 i                     ",
"               bi o       o            ",
"                m f      il            ",
"                         mm            ",
"              o     cc                 ",
"             i      ee  oc             ",
"         ii    k    ee  kk             ",
"               hjc  el                 ",
"               mhl em       kb         ",
"                 i e        ji         ",
"                   e     o             ",
"         mj jj     f                   ",
"         mlmgg     lm                  ",
"         mic      bee       m          ",
"        ii        eee      koj   j     ",
"        ii     km eeee    ik     o     ",
"              clk elee                 ",
"              lk  eeee                 ",
"              em beeee                 ",
"              ee meeee                 ",
"           e  beeeeffem                ",
"           e   eeleefee i ie           ",
"           ee  elleefee i me  oh       ",
"           ee  illeefee  o   om        ",
"           eem ilalffee  l             ",
"           lee ieelffee ee c           ",
"           jeeeeeelffleeee ccc         ",
"         icmeeeeeelfffleee chdd        ",
"         cj mceellfffflee  e           ",
"        ilhbceelllffaflee be    o      ",
"         chbeeeellffaflee ee           ",
"         cjheeeellfaafleeeeee          ",
"         ieeeeeefffaafflleeeeb         ",
"         ceeelllfffaaffllfeeee         ",
"       i  jeelffffaaaafffleeee         ",
"          jeelfffaaaaaafffeeek         ",
"         cefalffaaaadaaaffeeekbj       ",
"         ceeefffaaannaaaafeeemhc       ",
"         ceeefffaaanndaaaffeebhcm      ",
"        ceeelfffaaadddaaafflleeec      ",
"        celffffaaaaddddaaaffleeec      ",
"        clffffaaaadddddaaaaflllec      ",
"        clfffaaaaaddddddaaaffllec      ",
"        clfffaaadndddddddaaafllec      ",
"        cllfaaadddnnnnnddaaafllim      ",
"        celfaadddddnnnddddaafllc       ",
"        celfaadddnnnnnnnndaafeec       ",
"        cclffadnnnnnnnnnndaafecj       ",
"         helfaddnnnoonnnndaflej        ",
"         bcefaannndoodnnndffecj        ",
"           eefadnnoiiidndafleb         ",
"           illoaddccccidafeccb         ",
"            ellddccccccddlek           ",
"           ghjchkgbichkbhjjjkg         ",
"           ghhhbkgbhhbkbjjjhkm         ",
"            kjjhkkbhbkgbkkbbk          ",
"            gjbbkkghbkgbkkbbg          ",
"              hgggggggggkbk            ",
"              bgggggggggkbk            ",
"           gjiobkkjjbbkbhcciig         ",
"           gjjobbkjjbbkbhjjjig         ",
"           gkkmgggggggggggggbg         ",
"             bggggggggggggkk           ",
"             hhbggkbbgggbbbb           ",
"             jihkkjjjbbbjjjj           ",
"             jihbbijjbbbhjjj           ",
"             bijbbjjjbbbbhhh           ",
"              jjbbhjhbbkkkg            ",
"              gbkkggggggggg            ",
"              gggkggggggggg            ",
"              gkkkkkkgggkkg            ",
"              gcckkhhbkkbbg            ",
"              gjjkjjhbkgbkg            ",
"              gjjgjjhbkgbkg            ",
"              gjjgjjhbkkbkg            ",
"                ggggggggg              ",
"                ggkkbkggm              ",
"                gkkkbkggm              ",
"                ggbhhkggm              ",
"                ggbhhbkgm              ",
"                ggbhhbkgm              ",
"                ggbhhbkg               ",
"                 gbhhbkg               ",
"                 gbhhbkg               ",
"                 gbhhbkg               ",
"                 gbhhbkg               ",
"                 gbhhbkg               ",
"                 gbhhbkg               ",
"                 gbhhbkg               ",
"                 gbhhbkg               ",
"                 gbhbbkg               ",
"                 gbhhbkg               ",
"                 gbhhbkg               ",
"                 gbhhbkg               ",
"                 gbhhbkg               ",
"                 gkhbbkg               ",
"                 gkhbbkg               ",
"                 gbbbbkg               ",
"                 gkkkkkg               ",
"                 gkbbkkg               ",
"                 gkkkkkg               ",
"                 gkbbkgg               ",
"                 gkhbkkg               ",
"                 gkbkkgg               ",
"                 gkbkkgg               ",
"                 gkkkgg                ",
"                 gggggg                ",
"                 ggggmg                ",
"                   gm                  ",
"                                       ",
"                                       ",
"                                       ",
"                                       ",
"                                       ",
"                                       ",
"                                       ",
"                                       "
};