/* XPM */
static char *frame_7[] = {
/* width height num_colors chars_per_pixel */
"39 168 16 1",
/* colors */
"  c None",
"a c #EBCA51",
"b c #572C1C",
"c c #B86245",
"d c #EFD8A3",
"e c #D15C38",
"f c #E39A34",
"g c #2A1B1C",
"h c #76412A",
"i c #C17F59",
"j c #8F573A",
"k c #412116",
"l c #DB7636",
"m c #240803",
"n c #EEDCC2",
"o c #DD9C66",
/* pixels */
"                                       ",
"                                       ",
"                                       ",
"                                       ",
"                                       ",
"                                       ",
"                                       ",
"                                       ",
"                                       ",
"                                       ",
"                                       ",
"                                       ",
"                                       ",
"                                       ",
"                                       ",
"                                       ",
"                                       ",
"                                       ",
"                                       ",
"                                       ",
"                                       ",
"                                       ",
"                                       ",
"                   o                   ",
"                                       ",
"                                       ",
"                                       ",
"                                       ",
"                                       ",
"                                       ",
"                   k                   ",
"                   i                   ",
"                                       ",
"                                       ",
"                                       ",
"                                       ",
"                i  c                   ",
"                k  k                   ",
"                                       ",
"                                       ",
"                                       ",
"                  bi                   ",
"                  mk                   ",
"                                       ",
"                                       ",
"                j    oi                ",
"                i   bkmo               ",
"                    b jk               ",
"               o  i   m                ",
"               f  k jh                 ",
"               k    bb i               ",
"                  h  h j c             ",
"                j i  i  kc             ",
"                bj      i              ",
"                hcc  j    j            ",
"           i    h o  jk  mo            ",
"           h      b   h  cc            ",
"         b    k     bb                 ",
"         j    h     ce  hb             ",
"             m m    ee  oj             ",
"       mm    i imm  cem                ",
"       ii mm    il mclc     mm         ",
"          cc     o c o      ob         ",
"          m  m     c  o  a   jj        ",
"          i  im m  f         jh        ",
"              omf  f                   ",
"               ii  ce                  ",
"             i    c c                  ",
"          e l  c  c ee    c            ",
"   f       l   c    ce    cm   mm      ",
"               c   ceem        hi      ",
"               c  ceeem       jjhj     ",
"           ll  ee eeeej                ",
"           l   eeceffee                ",
"           mc  eeeeefeemim             ",
"        lo  c   eaeefee c     bo       ",
"        lo  ec  beeefeecee   hh        ",
"           meej heelfeeeeem       aa   ",
"   mo      eeecmeeeffeeeee mm     m    ",
"           eeeeeeoefffleeemjh          ",
"        c  eeeefflfffflfeeeelcj        ",
"        l  meeeeelffaffleeeeli  o      ",
"        chmmeeeeelfaafflleeec   m      ",
"         bc eelellfaafflleeeec         ",
"          mceelllffaaffllfleeei        ",
"       mc meeelfffaaaaffllleeec        ",
"       mc meeelffaaaaaafffleeec        ",
"       mc meealfaaaadaaaffleec         ",
"       meeeeellfaaadnaaaafleecmi       ",
"       meeeeelffaaaddaaaafffeime       ",
"       meeeelfffaaadddaaaffleeeei      ",
"       meeelfffaaaaddddaaaffleeec      ",
"       keelfffaaaaaddddaaaaffllec      ",
"       keelfffaaaaddddddaaaffflei      ",
"       keelffaaaaddddddddaaaaflec      ",
"       kjelfaaaadddnnndddaaaaflei      ",
"        melfaadddddnnnddddaaaflc       ",
"        meefaadddnnnnnnnndaaafec       ",
"        meeffaddnnnnnnnnnnaaalec       ",
"          effaddnnnddnnnnnaafej        ",
"          eefaadnndoodnnndaflec        ",
"           elaaannoiioonnafleb         ",
"           eeeaaddcccccddfeeeb         ",
"            ceeadccccccddfeb           ",
"           gjjjbkkbcchkbjjcjbg         ",
"           ghhhbkkbhhhkbjjjjbg         ",
"            kjjhkkbhbkgbkkbbk          ",
"            gjbbkkghbkgbkkbbg          ",
"              hgggggggggkbk            ",
"              bgggggggggkbk            ",
"           gjiobkkjjbbkbhcciig         ",
"           gjjobbkjjbbkbhjjjig         ",
"           gkkmgggggggggggggbg         ",
"             bggggggggggggkk           ",
"             hhbggkbbgggbbbb           ",
"             jihkkjjjbbbjjjj           ",
"             jihbbijjbbbhjjj           ",
"             bijbbjjjbbbbhhh           ",
"              jjbbhjhbbkkkg            ",
"              gbkkggggggggg            ",
"              gggkggggggggg            ",
"              gkkkkkkgggkkg            ",
"              gcckkhhbkkbbg            ",
"              gjjkjjhbkgbkg            ",
"              gjjgjjhbkgbkg            ",
"              gjjgjjhbkkbkg            ",
"                ggggggggg              ",
"                ggkkbkggm              ",
"                gkkkbkggm              ",
"                ggbhhkggm              ",
"                ggbhhbkgm              ",
"                ggbhhbkgm              ",
"                ggbhhbkg               ",
"                 gbhhbkg               ",
"                 gbhhbkg               ",
"                 gbhhbkg               ",
"                 gbhhbkg               ",
"                 gbhhbkg               ",
"                 gbhhbkg               ",
"                 gbhhbkg               ",
"                 gbhhbkg               ",
"                 gbhbbkg               ",
"                 gbhhbkg               ",
"                 gbhhbkg               ",
"                 gbhhbkg               ",
"                 gbhhbkg               ",
"                 gkhbbkg               ",
"                 gkhbbkg               ",
"                 gbbbbkg               ",
"                 gkkkkkg               ",
"                 gkbbkkg               ",
"                 gkkkkkg               ",
"                 gkbbkgg               ",
"                 gkhbkkg               ",
"                 gkbkkgg               ",
"                 gkbkkgg               ",
"                 gkkkgg                ",
"                 gggggg                ",
"                 ggggmg                ",
"                   gm                  ",
"                                       ",
"                                       ",
"                                       ",
"                                       ",
"                                       ",
"                                       ",
"                                       ",
"                                       "
};