/* XPM */
static char *frame_1[] = {
/* width height num_colors chars_per_pixel */
"39 168 16 1",
/* colors */
"  c None",
"a c #EBCA51",
"b c #572C1C",
"c c #B86245",
"d c #EFD8A3",
"e c #D15C38",
"f c #E39A34",
"g c #2A1B1C",
"h c #76412A",
"i c #C17F59",
"j c #8F573A",
"k c #412116",
"l c #DB7636",
"m c #240803",
"n c #EEDCC2",
"o c #DD9C66",
/* pixels */
"                                       ",
"                                       ",
"                                       ",
"                                       ",
"                                       ",
"                                       ",
"                                       ",
"                                       ",
"                                       ",
"                                       ",
"                                       ",
"                                       ",
"                                       ",
"                                       ",
"                                       ",
"                                       ",
"                                       ",
"                                       ",
"                                       ",
"                                       ",
"                   om                  ",
"                                       ",
"                                       ",
"                                       ",
"                                       ",
"                                       ",
"                                       ",
"                   m                   ",
"                   i                   ",
"                                       ",
"                                       ",
"                                       ",
"                                       ",
"                                       ",
"               ki  i                   ",
"                                       ",
"                                       ",
"                                       ",
"                                       ",
"                  hc                   ",
"                                       ",
"                                       ",
"                                       ",
"                h    oi                ",
"                i   hkmim              ",
"                    k hk               ",
"               b  b   b                ",
"               o  j hh                 ",
"               i    hh k               ",
"                  m  m i b             ",
"                m o  o   im            ",
"                im      i              ",
"                 im       m            ",
"           k    i o  i    o            ",
"           o      o   o  il            ",
"                                       ",
"        ki    i     ee                 ",
"                    ee  ol             ",
"             o i    ee                 ",
"      beh       el  eee                ",
"         mei     o e o      om         ",
"                   e  a  o   ik        ",
"         mi  i     e     o   ik        ",
"              o o  l   o               ",
"               ii  ee  a               ",
"             i    c e   e              ",
"         mi i  c  e ee  e c            ",
"   i      mo   c    ee  e e            ",
"               c   eee         ik      ",
"               e  ceee c      omih     ",
"           ic  ec eeee e i c           ",
"           lm  eeeeffece mie           ",
"           m   eeeeefee i ee           ",
"       mcimcjc mefeefee    e  om       ",
"       mfo kkec keeefee  c   im        ",
"        ii   ee jeeefee  o   m         ",
"           j eeheelffee ja c           ",
"   bi      c eefffefflehee ejj         ",
"           h jellelffleeee elk         ",
"            m ceelffffleee ej  k       ",
"        kc mc  eelffffeeeh e   m       ",
"        ki memmeelffafeee  e           ",
"         kcmeeeeelfaafelemmem mml      ",
"         keeeeeelffaaffleeeejmjji      ",
"         meeeelllffaafflleeemcmbi      ",
"       hc keeelfffaaaafflleeeemki      ",
"          keeelffaaaaaafffeeecmkc      ",
"         meefelfaaaadaaaffeeemmhc      ",
"         meeeelfaaaddaaaafeeemjec      ",
"         meeelffaaadddaaaffeemjec      ",
"        beeelfffaaadddaaaffleeeec      ",
"        beelfffaaaaddddaaaffleeec      ",
"        belfffaaaadddddaaaaflllec      ",
"        belffaaaadddddddaaaffllee      ",
"        belffaaadddddddddaaafllec      ",
"        belfaaaddddnnndddaaafllcg      ",
"        keefaadddddnnnddddaafllc       ",
"        keefaadddnnnnnnnndaafeec       ",
"        gheffaddnnnnnnnnnnaalech       ",
"          eefaddnnnoonnnndaalej        ",
"          jeffadnnooodnnnaafejh        ",
"           eefaddniiiiondafeek         ",
"           jelfaddcccccddfeeck         ",
"            eceadccccccddfej           ",
"           gjjchkkhccbbbjjjjhg         ",
"           gjjhbkkbhhbkbjjjjhg         ",
"            kjjhkkbhbkgbkkbbk          ",
"            gjbbkkghbkgbkkbbg          ",
"              hgggggggggkbk            ",
"              bgggggggggkbk            ",
"           gjiobkkjjbbkbhcciig         ",
"           gjjobbkjjbbkbhjjjig         ",
"           gkkmgggggggggggggbg         ",
"             bggggggggggggkk           ",
"             hhbggkbbgggbbbb           ",
"             jihkkjjjbbbjjjj           ",
"             jihbbijjbbbhjjj           ",
"             bijbbjjjbbbbhhh           ",
"              jjbbhjhbbkkkg            ",
"              gbkkggggggggg            ",
"              gggkggggggggg            ",
"              gkkkkkkgggkkg            ",
"              gcckkhhbkkbbg            ",
"              gjjkjjhbkgbkg            ",
"              gjjgjjhbkgbkg            ",
"              gjjgjjhbkkbkg            ",
"                ggggggggg              ",
"                ggkkbkggm              ",
"                gkkkbkggm              ",
"                ggbhhkggm              ",
"                ggbhhbkgm              ",
"                ggbhhbkgm              ",
"                ggbhhbkg               ",
"                 gbhhbkg               ",
"                 gbhhbkg               ",
"                 gbhhbkg               ",
"                 gbhhbkg               ",
"                 gbhhbkg               ",
"                 gbhhbkg               ",
"                 gbhhbkg               ",
"                 gbhhbkg               ",
"                 gbhbbkg               ",
"                 gbhhbkg               ",
"                 gbhhbkg               ",
"                 gbhhbkg               ",
"                 gbhhbkg               ",
"                 gkhbbkg               ",
"                 gkhbbkg               ",
"                 gbbbbkg               ",
"                 gkkkkkg               ",
"                 gkbbkkg               ",
"                 gkkkkkg               ",
"                 gkbbkgg               ",
"                 gkhbkkg               ",
"                 gkbkkgg               ",
"                 gkbkkgg               ",
"                 gkkkgg                ",
"                 gggggg                ",
"                 ggggmg                ",
"                   gm                  ",
"                                       ",
"                                       ",
"                                       ",
"                                       ",
"                                       ",
"                                       ",
"                                       ",
"                                       "
};