/* XPM */
static char *frame_3[] = {
/* width height num_colors chars_per_pixel */
"39 168 16 1",
/* colors */
"  c None",
"a c #EBCA51",
"b c #572C1C",
"c c #B86245",
"d c #EFD8A3",
"e c #D15C38",
"f c #E39A34",
"g c #2A1B1C",
"h c #76412A",
"i c #C17F59",
"j c #8F573A",
"k c #412116",
"l c #DB7636",
"m c #240803",
"n c #EEDCC2",
"o c #DD9C66",
/* pixels */
"                                       ",
"                                       ",
"                                       ",
"                                       ",
"                                       ",
"                                       ",
"                                       ",
"                                       ",
"                                       ",
"                                       ",
"                                       ",
"                                       ",
"                   ij                  ",
"                   gm                  ",
"                                       ",
"                                       ",
"                                       ",
"                                       ",
"                                       ",
"                                       ",
"                                       ",
"                                       ",
"                                       ",
"                                       ",
"                                       ",
"                   ob                  ",
"                                       ",
"                                       ",
"                                       ",
"                                       ",
"                                       ",
"                                       ",
"                                       ",
"                   o                   ",
"                                       ",
"                                       ",
"                                       ",
"                                       ",
"                                       ",
"                   o                   ",
"               mo                      ",
"                                       ",
"                                       ",
"                     oob               ",
"                    om hc              ",
"                      hk               ",
"                                       ",
"                    iih                ",
"                       bi              ",
"                  o  ik  ki            ",
"                o       bi             ",
"                 l                     ",
"                i o  ik   ko           ",
"                  o   i  kli           ",
"                  m                    ",
"                    cc                 ",
"         jh  ij     ce  joi            ",
"         bk  bb     ce  khk            ",
"                    ceh                ",
"                   hb                  ",
"                   hb                  ",
"                   hb    mo            ",
"          i  i     jk                  ",
"          lhmb    mjc                  ",
"          jjh     bee                  ",
"                  bee                  ",
"                  beee     om          ",
"      mo          beee                 ",
"                 hjeee                 ",
"                 heeee ih      k       ",
"              iekheeee ih      om      ",
"              oleeeffeeej              ",
"           ib oleeeefee    im          ",
"           ch  ceeeefee    ik          ",
"           ch  jefeefee  i             ",
"           cj  jeflffee  cm            ",
"           ceeibeelffle iem            ",
"        ij jeeeflelffleeeem            ",
"        oh  celeellfffleeek    o       ",
"          i ceeellffffleeekki          ",
"          e gieellffafleeejjb          ",
"          hmmceellfaafleeele           ",
"           eeeeellfaafllleeec          ",
"         lleeeelfffaafflleeemj         ",
"       ki ieeellfffaafffleeehe         ",
"          ceeelfffaaaafflleeee         ",
"         bleeefffaaaaaafffeeem         ",
"         ceeeeffaaaadaaaffeeemkj       ",
"         ceeeelfaaaddaaaafllembc       ",
"         ceelfffaaanndaaafflekhek      ",
"        ceeelfffaaadddaaafflleeec      ",
"        celffffaaaaddddaaafflleec      ",
"        clffffaaaadddddaaaaflllec      ",
"        clfffaaaadddddddaaaffllec      ",
"        clfffaaadddddddddaaaallec      ",
"        cllfaaaddddnnndddaaafllc       ",
"        celfaadddddnnnddddaafllc       ",
"        celfaadddnnnnnnnndaafeec       ",
"        hclffaddnnnnnnnnndaafech       ",
"         jelfaddnnnoonnnnnaalej        ",
"         jcefaadnndooodnndofecj        ",
"          meefadnnocccoddafleh         ",
"          mcelaaddecccioafeech         ",
"            eeladccccccodlej           ",
"           gjjchkkhiihbbhjjjhg         ",
"           gjjjhkkhhhhkbhjjjhg         ",
"            kjjhkkbhbkgbkkbbk          ",
"            gjbbkkghbkgbkkbbg          ",
"              hgggggggggkbk            ",
"              bgggggggggkbk            ",
"           gjiobkkjjbbkbhcciig         ",
"           gjjobbkjjbbkbhjjjig         ",
"           gkkmgggggggggggggbg         ",
"             bggggggggggggkk           ",
"             hhbggkbbgggbbbb           ",
"             jihkkjjjbbbjjjj           ",
"             jihbbijjbbbhjjj           ",
"             bijbbjjjbbbbhhh           ",
"              jjbbhjhbbkkkg            ",
"              gbkkggggggggg            ",
"              gggkggggggggg            ",
"              gkkkkkkgggkkg            ",
"              gcckkhhbkkbbg            ",
"              gjjkjjhbkgbkg            ",
"              gjjgjjhbkgbkg            ",
"              gjjgjjhbkkbkg            ",
"                ggggggggg              ",
"                ggkkbkggm              ",
"                gkkkbkggm              ",
"                ggbhhkggm              ",
"                ggbhhbkgm              ",
"                ggbhhbkgm              ",
"                ggbhhbkg               ",
"                 gbhhbkg               ",
"                 gbhhbkg               ",
"                 gbhhbkg               ",
"                 gbhhbkg               ",
"                 gbhhbkg               ",
"                 gbhhbkg               ",
"                 gbhhbkg               ",
"                 gbhhbkg               ",
"                 gbhbbkg               ",
"                 gbhhbkg               ",
"                 gbhhbkg               ",
"                 gbhhbkg               ",
"                 gbhhbkg               ",
"                 gkhbbkg               ",
"                 gkhbbkg               ",
"                 gbbbbkg               ",
"                 gkkkkkg               ",
"                 gkbbkkg               ",
"                 gkkkkkg               ",
"                 gkbbkgg               ",
"                 gkhbkkg               ",
"                 gkbkkgg               ",
"                 gkbkkgg               ",
"                 gkkkgg                ",
"                 gggggg                ",
"                 ggggmg                ",
"                   gm                  ",
"                                       ",
"                                       ",
"                                       ",
"                                       ",
"                                       ",
"                                       ",
"                                       ",
"                                       "
};