/* XPM */
static char *torch_3[] = {
"32 64 11 1 ",
"  c None",
". c #181010",
"X c #382018",
"o c #583020",
"+ c #784830",
"L c #986040",
"r c #881010",
"R c #C03010",
"O c #F08010",
"Y c #F8C030",
"W c #FFF090",
"                                ",
"            Y                   ",
"                                ",
"           rRO        r         ",
"                      R         ",
"                                ",
"           ROYO       O         ",
"                                ",
"           ROYYO      Y         ",
"          rROYYO                ",
"          ROYYWYO               ",
"          ROYYWYO               ",
"         ROOYYWWYO              ",
"         ROOYYWWYO              ",
"        ROOOYYWWWYO             ",
"        ROOOYYWWWYO             ",
"       ROOOOYYWWWYYO            ",
"       ROOOOYYWWWYYO            ",
"       ROOOOYYWWWYYO            ",
"       ROOOOYYWWWYYO            ",
"       ROOOOYYWWWYYO            ",
"       RROOOYYWWWYYO            ",
"       .RROOYYWWWYYO.           ",
"      .X.RROOYYYYYO.X.          ",
"      .oX...R.R.R...Xo.         ",
"      .oX.XoXoXoX.Xo.           ",
"      .oX.o+o+o+o.Xo.           ",
"      .oX.XoXoXoX.Xo.           ",
"      .oX.o+o+o+o.Xo.           ",
"      .oX.XoXoXoX.Xo.           ",
"       .X.o+o+o+o.X.            ",
"       .X.XoXoXoX.X.            ",
"       .X.o+o+o+o.X.            ",
"       .X.XoXoXoX.X.            ",
"        .X.......X.             ",
"        .XXoXoXoXX.             ",
"        .XXo+o+oXX.             ",
"         .XXXXXXX.              ",
"         .XXo+oXX.              ",
"         .XXXXXXX.              ",
"          .XXXXX.               ",
"          .XXXXX.               ",
"          .XXXXX.               ",
"          .XXXXX.               ",
"          .XXXXX.               ",
"          .XXXXX.               ",
"           .XXX.                ",
"           .XXX.                ",
"           .XXX.                ",
"           .XXX.                ",
"           .XXX.                ",
"           .XXX.                ",
"            .X.                 ",
"            .X.                 ",
"            .X.                 ",
"            .X.                 ",
"            ...                 ",
"                                ",
"                                ",
"                                ",
"                                ",
"                                ",
"                                ",
"                                ",
};
